# xmcd
#
# Track frame offsets:
#	150
#	16230
#	34863
#	55924
#	74592
#	98248
#	119819
#	136046
#	157209
#	187585
#	215343
#
# Disc length: 3315 seconds
#
# Revision: 6
# Processed by: cddbd v1.5.2PL0 Copyright (c) Steve Scherf et al.
# Submitted via: EasyCDDAExtractor 15.3.0.1
#
DISCID=9a0cf10b
DTITLE=Madonna - MDNA World Tour - CD 2
DYEAR=2013
DGENRE=Pop
TTITLE0=Justify My Love (Video Interlude)
TTITLE1=Vogue
TTITLE2=Erotic Candy Shop
TTITLE3=Human Nature
TTITLE4=Like A Virgin Waltz
TTITLE5=Love Spent
TTITLE6=Nobody Knows Me (Video Interlude)
TTITLE7=I'm Addicted
TTITLE8=I'm A Sinner
TTITLE9=Like A Prayer
TTITLE10=Celebration
EXTD=YEAR: 2013
EXTT0=
EXTT1=
EXTT2=
EXTT3=
EXTT4=
EXTT5=
EXTT6=
EXTT7=
EXTT8=
EXTT9=
EXTT10=
PLAYORDER=
